<svg width="45" height="20" viewBox="0 0 45 20" fill="none" xmlns="http://www.w3.org/2000/svg">
<path id="Scan" d="M10.0195 14.2012C10.0195 15.4577 9.5638 16.4375 8.65234 17.1406C7.74089 17.8438 6.50391 18.1953 4.94141 18.1953C3.2487 18.1953 1.94661 17.9772 1.03516 17.541V15.9395C1.62109 16.1868 2.25911 16.3822 2.94922 16.5254C3.63932 16.6686 4.32292 16.7402 5 16.7402C6.10677 16.7402 6.9401 16.5319 7.5 16.1152C8.0599 15.6921 8.33984 15.1061 8.33984 14.3574C8.33984 13.8626 8.23893 13.459 8.03711 13.1465C7.8418 12.8275 7.50977 12.5345 7.04102 12.2676C6.57878 12.0007 5.8724 11.6979 4.92188 11.3594C3.59375 10.8841 2.64323 10.321 2.07031 9.66992C1.50391 9.01888 1.2207 8.16927 1.2207 7.12109C1.2207 6.02083 1.63411 5.14518 2.46094 4.49414C3.28776 3.8431 4.38151 3.51758 5.74219 3.51758C7.16146 3.51758 8.4668 3.77799 9.6582 4.29883L9.14062 5.74414C7.96224 5.24935 6.81641 5.00195 5.70312 5.00195C4.82422 5.00195 4.13737 5.19076 3.64258 5.56836C3.14779 5.94596 2.90039 6.47005 2.90039 7.14062C2.90039 7.63542 2.99154 8.04232 3.17383 8.36133C3.35612 8.67383 3.66211 8.96354 4.0918 9.23047C4.52799 9.49089 5.19206 9.7806 6.08398 10.0996C7.58138 10.6335 8.61003 11.2064 9.16992 11.8184C9.73633 12.4303 10.0195 13.2246 10.0195 14.2012ZM17.1727 18.1953C15.6232 18.1953 14.422 17.7201 13.5691 16.7695C12.7228 15.8125 12.2996 14.4616 12.2996 12.7168C12.2996 10.9264 12.7293 9.54297 13.5887 8.56641C14.4546 7.58984 15.685 7.10156 17.2801 7.10156C17.7944 7.10156 18.3087 7.1569 18.823 7.26758C19.3374 7.37826 19.741 7.50846 20.034 7.6582L19.5359 9.03516C19.1779 8.89193 18.7872 8.77474 18.3641 8.68359C17.9409 8.58594 17.5665 8.53711 17.241 8.53711C15.0665 8.53711 13.9793 9.92383 13.9793 12.6973C13.9793 14.0124 14.243 15.0215 14.7703 15.7246C15.3042 16.4277 16.0919 16.7793 17.1336 16.7793C18.0255 16.7793 18.9402 16.5872 19.8777 16.2031V17.6387C19.1616 18.0098 18.2599 18.1953 17.1727 18.1953ZM29.2086 18L28.8863 16.4766H28.8082C28.2743 17.1471 27.7405 17.6029 27.2066 17.8438C26.6793 18.0781 26.0185 18.1953 25.2242 18.1953C24.163 18.1953 23.3297 17.9219 22.7242 17.375C22.1253 16.8281 21.8258 16.0501 21.8258 15.041C21.8258 12.8796 23.5543 11.7467 27.0113 11.6426L28.8277 11.584V10.9199C28.8277 10.0801 28.6454 9.46159 28.2809 9.06445C27.9228 8.66081 27.3466 8.45898 26.5523 8.45898C25.6604 8.45898 24.6513 8.73242 23.525 9.2793L23.027 8.03906C23.5543 7.7526 24.1305 7.52799 24.7555 7.36523C25.387 7.20247 26.0185 7.12109 26.65 7.12109C27.926 7.12109 28.8701 7.4043 29.482 7.9707C30.1005 8.53711 30.4098 9.44531 30.4098 10.6953V18H29.2086ZM25.5465 16.8574C26.5556 16.8574 27.3466 16.5807 27.9195 16.0273C28.499 15.474 28.7887 14.6992 28.7887 13.7031V12.7363L27.1676 12.8047C25.8785 12.8503 24.9475 13.0521 24.3746 13.4102C23.8082 13.7617 23.525 14.3118 23.525 15.0605C23.525 15.6465 23.7008 16.0924 24.0523 16.3984C24.4104 16.7044 24.9085 16.8574 25.5465 16.8574ZM41.2836 18V11.0762C41.2836 10.2038 41.085 9.55273 40.6879 9.12305C40.2908 8.69336 39.669 8.47852 38.8227 8.47852C37.7029 8.47852 36.8826 8.78125 36.3617 9.38672C35.8409 9.99219 35.5805 10.9915 35.5805 12.3848V18H33.9594V7.29688H35.2777L35.5414 8.76172H35.6195C35.9516 8.23438 36.4171 7.82747 37.016 7.54102C37.615 7.24805 38.2823 7.10156 39.018 7.10156C40.307 7.10156 41.2771 7.41406 41.9281 8.03906C42.5792 8.65755 42.9047 9.65039 42.9047 11.0176V18H41.2836Z" fill="white"/>
</svg>
