<svg width="340" height="18" viewBox="0 0 340 18" fill="none" xmlns="http://www.w3.org/2000/svg">
<g id="System Bar (Black)">
<path id="Time" d="M16.1341 14.2563C18.8221 14.2563 20.4187 12.1543 20.4187 8.5874C20.4187 5.08643 18.7195 3.16748 16.1927 3.16748C13.8929 3.16748 12.2669 4.71289 12.2669 6.87354C12.2669 8.90234 13.7317 10.3818 15.7459 10.3818C16.9837 10.3818 17.9871 9.81055 18.4852 8.80713H18.6097C18.5877 11.29 17.7015 12.7109 16.1561 12.7109C15.2479 12.7109 14.5228 12.2129 14.2957 11.4072H12.4134C12.721 13.1284 14.2005 14.2563 16.1341 14.2563ZM16.2 8.92432C14.9695 8.92432 14.1199 8.06006 14.1199 6.81494C14.1199 5.62109 15.0135 4.70557 16.2073 4.70557C17.4012 4.70557 18.2947 5.63574 18.2947 6.85156C18.2947 8.05273 17.4231 8.92432 16.2 8.92432ZM23.4366 7.15918C24.1324 7.15918 24.6085 6.67578 24.6085 6.02393C24.6085 5.37207 24.1324 4.88867 23.4366 4.88867C22.7481 4.88867 22.2647 5.37207 22.2647 6.02393C22.2647 6.67578 22.7481 7.15918 23.4366 7.15918ZM23.4366 12.5352C24.1324 12.5352 24.6085 12.0444 24.6085 11.3999C24.6085 10.748 24.1324 10.2646 23.4366 10.2646C22.7481 10.2646 22.2647 10.748 22.2647 11.3999C22.2647 12.0444 22.7481 12.5352 23.4366 12.5352ZM31.6107 14H33.4198V11.9712H34.848V10.4111H33.4198V3.43115H30.7538C29.3183 5.61377 27.8168 8.04541 26.4472 10.4258V11.9712H31.6107V14ZM28.1977 10.3452C29.2304 8.55078 30.4535 6.59521 31.5375 4.93994H31.64V10.4551H28.1977V10.3452ZM38.8767 14H40.7663V3.43115H38.884L36.1228 5.37207V7.15186L38.7521 5.2915H38.8767V14Z" fill="white"/>
<g id="Battery">
<path id="Cap" opacity="0.4" d="M338.333 7.00049V11.0005C339.138 10.6617 339.661 9.87362 339.661 9.00049C339.661 8.12735 339.138 7.33926 338.333 7.00049Z" fill="white"/>
<rect id="Capacity" x="317.333" y="5.33398" width="18" height="7.33333" rx="1.33333" fill="white"/>
</g>
<path id="Wifi" fill-rule="evenodd" clip-rule="evenodd" d="M302.667 5.61456C304.892 5.61465 307.031 6.46876 308.644 8.00036C308.765 8.1186 308.959 8.11711 309.079 7.99701L310.239 6.82668C310.3 6.76577 310.334 6.68326 310.333 6.59741C310.333 6.51156 310.298 6.42945 310.237 6.36925C306.005 2.31702 299.329 2.31702 295.097 6.36925C295.035 6.42941 295.001 6.51149 295 6.59734C294.999 6.68319 295.033 6.76573 295.094 6.82668L296.255 7.99701C296.374 8.11729 296.568 8.11878 296.69 8.00036C298.302 6.46866 300.442 5.61455 302.667 5.61456ZM302.667 9.42214C303.889 9.42207 305.068 9.87602 305.974 10.6958C306.097 10.8121 306.29 10.8096 306.409 10.6901L307.569 9.51978C307.63 9.45839 307.663 9.37512 307.663 9.28858C307.662 9.20204 307.626 9.11947 307.564 9.05934C304.805 6.49493 300.532 6.49493 297.773 9.05934C297.71 9.11947 297.675 9.20209 297.674 9.28865C297.673 9.37521 297.707 9.45848 297.768 9.51978L298.927 10.6901C299.047 10.8096 299.24 10.8121 299.362 10.6958C300.268 9.87656 301.446 9.42265 302.667 9.42214ZM304.989 11.984C304.991 12.0708 304.957 12.1544 304.895 12.2152L302.89 14.2372C302.831 14.2966 302.751 14.3301 302.667 14.3301C302.583 14.3301 302.503 14.2966 302.445 14.2372L300.439 12.2152C300.377 12.1544 300.343 12.0707 300.345 11.9839C300.347 11.8971 300.384 11.815 300.449 11.7568C301.729 10.6745 303.605 10.6745 304.886 11.7568C304.95 11.815 304.988 11.8972 304.989 11.984Z" fill="white"/>
<path id="Cellular Connection" fill-rule="evenodd" clip-rule="evenodd" d="M289 3.66602H288C287.448 3.66602 287 4.11373 287 4.66602V13.3327C287 13.885 287.448 14.3327 288 14.3327H289C289.552 14.3327 290 13.885 290 13.3327V4.66602C290 4.11373 289.552 3.66602 289 3.66602ZM283.333 5.99934H284.333C284.886 5.99934 285.333 6.44706 285.333 6.99934V13.3327C285.333 13.885 284.886 14.3327 284.333 14.3327H283.333C282.781 14.3327 282.333 13.885 282.333 13.3327V6.99934C282.333 6.44706 282.781 5.99934 283.333 5.99934ZM279.667 8.33269H278.667C278.114 8.33269 277.667 8.7804 277.667 9.33269V13.3327C277.667 13.885 278.114 14.3327 278.667 14.3327H279.667C280.219 14.3327 280.667 13.885 280.667 13.3327V9.33269C280.667 8.7804 280.219 8.33269 279.667 8.33269ZM275 10.3327H274C273.448 10.3327 273 10.7804 273 11.3327V13.3327C273 13.885 273.448 14.3327 274 14.3327H275C275.552 14.3327 276 13.885 276 13.3327V11.3327C276 10.7804 275.552 10.3327 275 10.3327Z" fill="white"/>
</g>
</svg>
