<svg width="78" height="78" viewBox="0 0 78 78" fill="none" xmlns="http://www.w3.org/2000/svg">
<g filter="url(#filter0_di_2802_13279)">
<rect x="22" y="16" width="30" height="30" rx="15" fill="url(#paint0_linear_2802_13279)"/>
</g>
<path d="M38.5432 29.5213L41.5858 26.4787C42.2525 25.8121 42.5858 25.4787 42.5858 25.0645C42.5858 24.6503 42.2525 24.317 41.5858 23.6503L40.3497 22.4142C39.683 21.7475 39.3497 21.4142 38.9355 21.4142C38.5213 21.4142 38.1879 21.7475 37.5213 22.4142L30.4142 29.5213C29.7475 30.1879 29.4142 30.5213 29.4142 30.9355C29.4142 31.3497 29.7475 31.683 30.4142 32.3497L37.5213 39.4568C38.1879 40.1234 38.5213 40.4568 38.9355 40.4568C39.3497 40.4568 39.683 40.1234 40.3497 39.4568L41.5858 38.2207C42.2525 37.554 42.5858 37.2207 42.5858 36.8065C42.5858 36.3922 42.2525 36.0589 41.5858 35.3922L38.5432 32.3497L38.5432 32.3497C37.8766 31.683 37.5432 31.3497 37.5432 30.9355C37.5432 30.5213 37.8766 30.1879 38.5432 29.5213Z" fill="#AEAEAE"/>
<defs>
<filter id="filter0_di_2802_13279" x="0" y="0" width="78" height="78" filterUnits="userSpaceOnUse" color-interpolation-filters="sRGB">
<feFlood flood-opacity="0" result="BackgroundImageFix"/>
<feColorMatrix in="SourceAlpha" type="matrix" values="0 0 0 0 0 0 0 0 0 0 0 0 0 0 0 0 0 0 127 0" result="hardAlpha"/>
<feOffset dx="2" dy="8"/>
<feGaussianBlur stdDeviation="12"/>
<feColorMatrix type="matrix" values="0 0 0 0 0 0 0 0 0 0 0 0 0 0 0 0 0 0 0.12 0"/>
<feBlend mode="normal" in2="BackgroundImageFix" result="effect1_dropShadow_2802_13279"/>
<feBlend mode="normal" in="SourceGraphic" in2="effect1_dropShadow_2802_13279" result="shape"/>
<feColorMatrix in="SourceAlpha" type="matrix" values="0 0 0 0 0 0 0 0 0 0 0 0 0 0 0 0 0 0 127 0" result="hardAlpha"/>
<feOffset dy="2"/>
<feComposite in2="hardAlpha" operator="arithmetic" k2="-1" k3="1"/>
<feColorMatrix type="matrix" values="0 0 0 0 1 0 0 0 0 1 0 0 0 0 1 0 0 0 1 0"/>
<feBlend mode="normal" in2="shape" result="effect2_innerShadow_2802_13279"/>
</filter>
<linearGradient id="paint0_linear_2802_13279" x1="37" y1="-15.5" x2="114.964" y2="61.0432" gradientUnits="userSpaceOnUse">
<stop stop-color="white"/>
<stop offset="1" stop-color="#D1D1D1"/>
</linearGradient>
</defs>
</svg>
