<svg width="101" height="20" viewBox="0 0 101 20" fill="none" xmlns="http://www.w3.org/2000/svg">
<path d="M9.01953 11.2012C9.01953 12.4577 8.5638 13.4375 7.65234 14.1406C6.74089 14.8438 5.50391 15.1953 3.94141 15.1953C2.2487 15.1953 0.946615 14.9772 0.0351562 14.541V12.9395C0.621094 13.1868 1.25911 13.3822 1.94922 13.5254C2.63932 13.6686 3.32292 13.7402 4 13.7402C5.10677 13.7402 5.9401 13.5319 6.5 13.1152C7.0599 12.6921 7.33984 12.1061 7.33984 11.3574C7.33984 10.8626 7.23893 10.459 7.03711 10.1465C6.8418 9.82747 6.50977 9.53451 6.04102 9.26758C5.57878 9.00065 4.8724 8.69792 3.92188 8.35938C2.59375 7.88411 1.64323 7.32096 1.07031 6.66992C0.503906 6.01888 0.220703 5.16927 0.220703 4.12109C0.220703 3.02083 0.634115 2.14518 1.46094 1.49414C2.28776 0.843099 3.38151 0.517578 4.74219 0.517578C6.16146 0.517578 7.4668 0.777995 8.6582 1.29883L8.14062 2.74414C6.96224 2.24935 5.81641 2.00195 4.70312 2.00195C3.82422 2.00195 3.13737 2.19076 2.64258 2.56836C2.14779 2.94596 1.90039 3.47005 1.90039 4.14062C1.90039 4.63542 1.99154 5.04232 2.17383 5.36133C2.35612 5.67383 2.66211 5.96354 3.0918 6.23047C3.52799 6.49089 4.19206 6.7806 5.08398 7.09961C6.58138 7.63346 7.61003 8.20638 8.16992 8.81836C8.73633 9.43034 9.01953 10.2246 9.01953 11.2012ZM16.1727 15.1953C14.6232 15.1953 13.422 14.7201 12.5691 13.7695C11.7228 12.8125 11.2996 11.4616 11.2996 9.7168C11.2996 7.92643 11.7293 6.54297 12.5887 5.56641C13.4546 4.58984 14.685 4.10156 16.2801 4.10156C16.7944 4.10156 17.3087 4.1569 17.823 4.26758C18.3374 4.37826 18.741 4.50846 19.034 4.6582L18.5359 6.03516C18.1779 5.89193 17.7872 5.77474 17.3641 5.68359C16.9409 5.58594 16.5665 5.53711 16.241 5.53711C14.0665 5.53711 12.9793 6.92383 12.9793 9.69727C12.9793 11.0124 13.243 12.0215 13.7703 12.7246C14.3042 13.4277 15.0919 13.7793 16.1336 13.7793C17.0255 13.7793 17.9402 13.5872 18.8777 13.2031V14.6387C18.1616 15.0098 17.2599 15.1953 16.1727 15.1953ZM28.2086 15L27.8863 13.4766H27.8082C27.2743 14.1471 26.7405 14.6029 26.2066 14.8438C25.6793 15.0781 25.0185 15.1953 24.2242 15.1953C23.163 15.1953 22.3297 14.9219 21.7242 14.375C21.1253 13.8281 20.8258 13.0501 20.8258 12.041C20.8258 9.87956 22.5543 8.74674 26.0113 8.64258L27.8277 8.58398V7.91992C27.8277 7.08008 27.6454 6.46159 27.2809 6.06445C26.9228 5.66081 26.3466 5.45898 25.5523 5.45898C24.6604 5.45898 23.6513 5.73242 22.525 6.2793L22.027 5.03906C22.5543 4.7526 23.1305 4.52799 23.7555 4.36523C24.387 4.20247 25.0185 4.12109 25.65 4.12109C26.926 4.12109 27.8701 4.4043 28.482 4.9707C29.1005 5.53711 29.4098 6.44531 29.4098 7.69531V15H28.2086ZM24.5465 13.8574C25.5556 13.8574 26.3466 13.5807 26.9195 13.0273C27.499 12.474 27.7887 11.6992 27.7887 10.7031V9.73633L26.1676 9.80469C24.8785 9.85026 23.9475 10.0521 23.3746 10.4102C22.8082 10.7617 22.525 11.3118 22.525 12.0605C22.525 12.6465 22.7008 13.0924 23.0523 13.3984C23.4104 13.7044 23.9085 13.8574 24.5465 13.8574ZM40.2836 15V8.07617C40.2836 7.20378 40.085 6.55273 39.6879 6.12305C39.2908 5.69336 38.669 5.47852 37.8227 5.47852C36.7029 5.47852 35.8826 5.78125 35.3617 6.38672C34.8409 6.99219 34.5805 7.99154 34.5805 9.38477V15H32.9594V4.29688H34.2777L34.5414 5.76172H34.6195C34.9516 5.23438 35.4171 4.82747 36.016 4.54102C36.615 4.24805 37.2823 4.10156 38.018 4.10156C39.307 4.10156 40.2771 4.41406 40.9281 5.03906C41.5792 5.65755 41.9047 6.65039 41.9047 8.01758V15H40.2836ZM52.7687 15V8.07617C52.7687 7.20378 52.5702 6.55273 52.173 6.12305C51.7759 5.69336 51.1542 5.47852 50.3078 5.47852C49.188 5.47852 48.3677 5.78125 47.8469 6.38672C47.326 6.99219 47.0656 7.99154 47.0656 9.38477V15H45.4445V4.29688H46.7629L47.0266 5.76172H47.1047C47.4367 5.23438 47.9022 4.82747 48.5012 4.54102C49.1001 4.24805 49.7674 4.10156 50.5031 4.10156C51.7922 4.10156 52.7622 4.41406 53.4133 5.03906C54.0643 5.65755 54.3898 6.65039 54.3898 8.01758V15H52.7687ZM59.5508 15H57.9297V4.29688H59.5508V15ZM57.793 1.39648C57.793 1.02539 57.8841 0.755208 58.0664 0.585938C58.2487 0.410156 58.4766 0.322266 58.75 0.322266C59.0104 0.322266 59.235 0.410156 59.4238 0.585938C59.6126 0.761719 59.707 1.0319 59.707 1.39648C59.707 1.76107 59.6126 2.03451 59.4238 2.2168C59.235 2.39258 59.0104 2.48047 58.75 2.48047C58.4766 2.48047 58.2487 2.39258 58.0664 2.2168C57.8841 2.03451 57.793 1.76107 57.793 1.39648ZM70.5125 15V8.07617C70.5125 7.20378 70.3139 6.55273 69.9168 6.12305C69.5197 5.69336 68.8979 5.47852 68.0516 5.47852C66.9318 5.47852 66.1115 5.78125 65.5906 6.38672C65.0698 6.99219 64.8094 7.99154 64.8094 9.38477V15H63.1883V4.29688H64.5066L64.7703 5.76172H64.8484C65.1805 5.23438 65.646 4.82747 66.2449 4.54102C66.8439 4.24805 67.5112 4.10156 68.2469 4.10156C69.5359 4.10156 70.506 4.41406 71.157 5.03906C71.8081 5.65755 72.1336 6.65039 72.1336 8.01758V15H70.5125ZM84.4332 4.29688V5.32227L82.4508 5.55664C82.6331 5.78451 82.7958 6.08398 82.9391 6.45508C83.0823 6.81966 83.1539 7.23307 83.1539 7.69531C83.1539 8.74349 82.7958 9.58008 82.0797 10.2051C81.3635 10.8301 80.3805 11.1426 79.1305 11.1426C78.8115 11.1426 78.512 11.1165 78.232 11.0645C77.5419 11.429 77.1969 11.888 77.1969 12.4414C77.1969 12.7344 77.3173 12.9525 77.5582 13.0957C77.7991 13.2324 78.2125 13.3008 78.7984 13.3008H80.693C81.8518 13.3008 82.7405 13.5449 83.359 14.0332C83.984 14.5215 84.2965 15.2311 84.2965 16.1621C84.2965 17.347 83.8212 18.2487 82.8707 18.8672C81.9202 19.4922 80.5335 19.8047 78.7105 19.8047C77.3108 19.8047 76.2301 19.5443 75.4684 19.0234C74.7132 18.5026 74.3355 17.7669 74.3355 16.8164C74.3355 16.1654 74.5439 15.6022 74.9605 15.127C75.3772 14.6517 75.9632 14.3294 76.7184 14.1602C76.4449 14.0365 76.2138 13.8444 76.025 13.584C75.8427 13.3236 75.7516 13.0208 75.7516 12.6758C75.7516 12.2852 75.8557 11.9434 76.0641 11.6504C76.2724 11.3574 76.6012 11.0742 77.0504 10.8008C76.497 10.5729 76.0445 10.1855 75.693 9.63867C75.3479 9.0918 75.1754 8.4668 75.1754 7.76367C75.1754 6.5918 75.527 5.6901 76.2301 5.05859C76.9332 4.42057 77.9293 4.10156 79.2184 4.10156C79.7783 4.10156 80.2828 4.16667 80.732 4.29688H84.4332ZM75.898 16.7969C75.898 17.3763 76.1422 17.8158 76.6305 18.1152C77.1188 18.4147 77.8186 18.5645 78.7301 18.5645C80.0908 18.5645 81.0966 18.3594 81.7477 17.9492C82.4052 17.5456 82.734 16.9954 82.734 16.2988C82.734 15.7194 82.5549 15.3158 82.1969 15.0879C81.8388 14.8665 81.165 14.7559 80.1754 14.7559H78.232C77.4964 14.7559 76.9234 14.9316 76.5133 15.2832C76.1031 15.6348 75.898 16.1393 75.898 16.7969ZM76.777 7.72461C76.777 8.47331 76.9885 9.03971 77.4117 9.42383C77.8349 9.80794 78.4241 10 79.1793 10C80.7613 10 81.5523 9.23177 81.5523 7.69531C81.5523 6.08724 80.7516 5.2832 79.15 5.2832C78.3883 5.2832 77.8023 5.48828 77.3922 5.89844C76.982 6.30859 76.777 6.91732 76.777 7.72461ZM86.5961 13.9648C86.5961 13.5286 86.6937 13.1999 86.8891 12.9785C87.0909 12.7507 87.3773 12.6367 87.7484 12.6367C88.126 12.6367 88.419 12.7507 88.6273 12.9785C88.8422 13.1999 88.9496 13.5286 88.9496 13.9648C88.9496 14.388 88.8422 14.7135 88.6273 14.9414C88.4125 15.1693 88.1195 15.2832 87.7484 15.2832C87.4164 15.2832 87.1397 15.1823 86.9184 14.9805C86.7035 14.7721 86.5961 14.4336 86.5961 13.9648ZM92.1281 13.9648C92.1281 13.5286 92.2258 13.1999 92.4211 12.9785C92.6229 12.7507 92.9094 12.6367 93.2805 12.6367C93.6581 12.6367 93.951 12.7507 94.1594 12.9785C94.3742 13.1999 94.4816 13.5286 94.4816 13.9648C94.4816 14.388 94.3742 14.7135 94.1594 14.9414C93.9445 15.1693 93.6516 15.2832 93.2805 15.2832C92.9484 15.2832 92.6717 15.1823 92.4504 14.9805C92.2355 14.7721 92.1281 14.4336 92.1281 13.9648ZM97.6602 13.9648C97.6602 13.5286 97.7578 13.1999 97.9531 12.9785C98.1549 12.7507 98.4414 12.6367 98.8125 12.6367C99.1901 12.6367 99.4831 12.7507 99.6914 12.9785C99.9062 13.1999 100.014 13.5286 100.014 13.9648C100.014 14.388 99.9062 14.7135 99.6914 14.9414C99.4766 15.1693 99.1836 15.2832 98.8125 15.2832C98.4805 15.2832 98.2038 15.1823 97.9824 14.9805C97.7676 14.7721 97.6602 14.4336 97.6602 13.9648Z" fill="white"/>
</svg>
